<?xml version="1.0" encoding="UTF-8"?>
<svg width="60px" height="60px" viewBox="0 0 60 60" version="1.1" xmlns="http://www.w3.org/2000/svg" xmlns:xlink="http://www.w3.org/1999/xlink">
    <title>编组 2</title>
    <g id="Web" stroke="none" stroke-width="1" fill="none" fill-rule="evenodd">
        <g id="Web-Events-Light-(Static)备份-2" transform="translate(-170, -488)">
            <g id="Card-2" transform="translate(40, 423)">
                <g id="编组-2" transform="translate(130, 65)">
                    <path d="M25.0920383,-6.23594842e-16 L34.9079617,9.35392262e-16 C43.1669727,-5.8176344e-16 46.5091978,0.928256112 49.768457,2.67132704 C53.0277163,4.41439796 55.585602,6.97228371 57.328673,10.231543 C59.0717439,13.4908022 60,16.8330273 60,25.0920383 L60,34.9079617 C60,43.1669727 59.0717439,46.5091978 57.328673,49.768457 C55.585602,53.0277163 53.0277163,55.585602 49.768457,57.328673 C46.5091978,59.0717439 43.1669727,60 34.9079617,60 L25.0920383,60 C16.8330273,60 13.4908022,59.0717439 10.231543,57.328673 C6.97228371,55.585602 4.41439796,53.0277163 2.67132704,49.768457 C0.928256112,46.5091978 1.93921147e-16,43.1669727 -3.11797421e-16,34.9079617 L6.23594842e-16,25.0920383 C-3.87842293e-16,16.8330273 0.928256112,13.4908022 2.67132704,10.231543 C4.41439796,6.97228371 6.97228371,4.41439796 10.231543,2.67132704 C13.4908022,0.928256112 16.8330273,3.87842293e-16 25.0920383,-6.23594842e-16 Z" id="矩形备份" fill="#414CDD"></path>
                    <path d="M43.0160653,17.5124932 C40.5886234,16.3387497 37.9930875,15.4857218 35.279526,15 C34.9462681,15.622678 34.5569274,16.4601934 34.2884911,17.1264339 C31.4039056,16.6781121 28.5458448,16.6781121 25.7143091,17.1264339 C25.4459241,16.4601934 25.0477418,15.622678 24.7115024,15 C21.9950108,15.4857218 19.3964934,16.3418841 16.9690515,17.5187088 C12.0728794,25.1650416 10.7456076,32.6214525 11.4092448,39.9719854 C14.6566435,42.4782099 17.8037642,44.0006658 20.8977734,44.9969187 C21.6617015,43.9103533 22.3430219,42.7553098 22.929963,41.5380039 C21.8121122,41.099032 20.7414511,40.5573165 19.7298028,39.9284229 C19.9981877,39.7229355 20.2607125,39.508098 20.5143442,39.2870449 C26.6846792,42.2696412 33.3889055,42.2696412 39.4855259,39.2870449 C39.7421391,39.508098 40.0046125,39.7229355 40.2700673,39.9284229 C39.2554376,40.5603978 38.1818463,41.1021133 37.0639955,41.5411382 C37.6509365,42.7553098 38.3293269,43.9134878 39.0961852,45 C42.1931757,44.0037471 45.3432163,42.4813442 48.5906176,39.9719854 C49.3692989,31.4508434 47.2604132,24.0629106 43.0160653,17.5124932 Z M23.6247447,35.25 C21.7705725,35.25 20.25,33.3907322 20.25,31.1266028 C20.25,28.8624735 21.7381028,27 23.6247447,27 C25.5114382,27 27.0319592,28.8592125 26.9994895,31.1266028 C27.0024225,33.3907322 25.5114382,35.25 23.6247447,35.25 Z M36.3747447,35.25 C34.5205725,35.25 33,33.3907322 33,31.1266028 C33,28.8624735 34.4880513,27 36.3747447,27 C38.2613868,27 39.7819592,28.8592125 39.7494895,31.1266028 C39.7494895,33.3907322 38.2613868,35.25 36.3747447,35.25 Z" id="Discord" fill="#FFFFFF" fill-rule="nonzero"></path>
                </g>
            </g>
        </g>
    </g>
</svg>