<?xml version="1.0" encoding="UTF-8"?>
<svg width="60px" height="60px" viewBox="0 0 60 60" version="1.1" xmlns="http://www.w3.org/2000/svg" xmlns:xlink="http://www.w3.org/1999/xlink">
    <title>编组 3</title>
    <g id="Web" stroke="none" stroke-width="1" fill="none" fill-rule="evenodd">
        <g id="Web-Events-Light-(Static)备份-2" transform="translate(-270, -488)">
            <g id="Card-2" transform="translate(40, 423)">
                <g id="编组-3" transform="translate(230, 65)">
                    <path d="M25.0920383,-6.23594842e-16 L34.9079617,9.35392262e-16 C43.1669727,-5.8176344e-16 46.5091978,0.928256112 49.768457,2.67132704 C53.0277163,4.41439796 55.585602,6.97228371 57.328673,10.231543 C59.0717439,13.4908022 60,16.8330273 60,25.0920383 L60,34.9079617 C60,43.1669727 59.0717439,46.5091978 57.328673,49.768457 C55.585602,53.0277163 53.0277163,55.585602 49.768457,57.328673 C46.5091978,59.0717439 43.1669727,60 34.9079617,60 L25.0920383,60 C16.8330273,60 13.4908022,59.0717439 10.231543,57.328673 C6.97228371,55.585602 4.41439796,53.0277163 2.67132704,49.768457 C0.928256112,46.5091978 1.93921147e-16,43.1669727 -3.11797421e-16,34.9079617 L6.23594842e-16,25.0920383 C-3.87842293e-16,16.8330273 0.928256112,13.4908022 2.67132704,10.231543 C4.41439796,6.97228371 6.97228371,4.41439796 10.231543,2.67132704 C13.4908022,0.928256112 16.8330273,3.87842293e-16 25.0920383,-6.23594842e-16 Z" id="矩形" fill="#EBEBEB"></path>
                    <path d="M46.9049745,25.9016195 C47.7864107,25.9523612 48.3955237,26.2020615 48.8706416,26.728656 C49.3293738,27.2370893 49.5353029,27.8377066 49.4945764,28.5283333 C49.4534063,29.2264816 49.1779798,29.8081564 48.6627788,30.2706827 C48.15446,30.7270306 47.5597903,30.9352169 46.8785625,30.8946478 C46.0682238,30.5427471 45.5209399,30.2512432 45.0508764,29.8232661 C44.7925326,29.4350756 44.6419781,29.1496266 44.5653948,28.8904611 C44.8031016,28.4579264 44.8238361,28.0565126 44.8249481,27.628021 C44.8363771,27.4503532 44.8646742,27.2769436 44.9102033,27.1078688 C45.7051881,26.2672054 46.2475115,25.9381299 46.9049745,25.9016195 Z M19.5637796,40.6991236 C19.8068287,41.0625842 20.0019218,41.4175166 20.1313864,41.7987552 L20.3010881,42.6554778 C20.3138431,42.8520158 20.310702,43.0589045 20.290041,43.2793441 L20.3071248,43.2832744 C20.2800663,43.6217116 20.2479653,43.9440156 20.2403468,44.2440411 C20.1883882,44.3160831 20.1362995,44.3817948 20.0816932,44.4438234 L20.0058866,44.5259867 C19.376766,45.0908255 18.7795163,45.3365996 18.0791104,45.2946312 C17.3906364,45.2533778 16.8157959,44.9739839 16.3535842,44.458535 C15.8945805,43.9466636 15.6723264,43.359776 15.7030246,42.6922127 C15.7312324,42.0788052 15.9485385,41.5516154 16.3556741,41.1110237 C16.9728523,40.7676757 17.361669,40.6437973 17.785802,40.6636436 C18.8259813,40.4855131 19.2367833,40.5121378 19.5637796,40.6991236 Z M14.9062628,20.3002168 C15.7744812,20.3478794 16.3722967,20.602558 16.8477365,21.1313549 C17.2853022,21.6180273 17.5030036,22.1827211 17.4997435,22.8258288 L17.0483037,23.735535 C16.7749303,24.2888109 16.3740687,24.7200427 16.0117695,25.0901086 C15.6917623,25.2277726 15.3754185,25.2932962 15.0414731,25.2993238 L14.8589865,25.2968478 C14.1697456,25.2664096 13.5970379,24.9925115 13.1409128,24.4750506 C12.683834,23.9565078 12.4643869,23.3690796 12.5051985,22.705226 C12.5469619,22.0258882 12.805547,21.4495815 13.2863297,20.9787783 C13.7392378,20.5352712 14.2787952,20.3081433 14.9062628,20.3002168 Z M38.0849804,43.5001448 C38.663676,43.5250408 39.0290905,43.5981973 39.3533465,43.7661019 L39.387,43.715 L39.4236152,43.7514779 C40.3295335,44.6632071 40.6990918,45.274091 40.6985411,45.9899928 L40.6946358,46.1175011 C40.653475,46.8076459 40.375275,47.3842495 39.8608494,47.8477031 C39.3439202,48.3134122 38.7332868,48.5278606 38.0310458,48.4968479 C37.3508878,48.4668104 36.7891777,48.1988811 36.348558,47.6876438 C35.8925853,47.1585927 35.6719278,46.5586637 35.7031142,45.8822718 C35.7175224,45.5697767 35.7762554,45.2785187 35.8861238,45.0100487 L36.211,44.213 L36.3693974,44.1133062 C37.0063914,43.7192249 37.4587475,43.5396095 37.9396425,43.5059369 Z" id="形状" stroke="#191C24" stroke-width="3" fill-rule="nonzero"></path>
                </g>
            </g>
        </g>
    </g>
</svg>