<?xml version="1.0" encoding="UTF-8"?>
<svg width="60px" height="60px" viewBox="0 0 60 60" version="1.1" xmlns="http://www.w3.org/2000/svg" xmlns:xlink="http://www.w3.org/1999/xlink">
    <title>编组</title>
    <g id="Web" stroke="none" stroke-width="1" fill="none" fill-rule="evenodd">
        <g id="Web-Events-Light-(Static)备份-2" transform="translate(-70, -488)">
            <g id="Card-2" transform="translate(40, 423)">
                <g id="编组" transform="translate(30, 65)">
                    <path d="M25.0920383,-6.23594842e-16 L34.9079617,9.35392262e-16 C43.1669727,-5.8176344e-16 46.5091978,0.928256112 49.768457,2.67132704 C53.0277163,4.41439796 55.585602,6.97228371 57.328673,10.231543 C59.0717439,13.4908022 60,16.8330273 60,25.0920383 L60,34.9079617 C60,43.1669727 59.0717439,46.5091978 57.328673,49.768457 C55.585602,53.0277163 53.0277163,55.585602 49.768457,57.328673 C46.5091978,59.0717439 43.1669727,60 34.9079617,60 L25.0920383,60 C16.8330273,60 13.4908022,59.0717439 10.231543,57.328673 C6.97228371,55.585602 4.41439796,53.0277163 2.67132704,49.768457 C0.928256112,46.5091978 1.93921147e-16,43.1669727 -3.11797421e-16,34.9079617 L6.23594842e-16,25.0920383 C-3.87842293e-16,16.8330273 0.928256112,13.4908022 2.67132704,10.231543 C4.41439796,6.97228371 6.97228371,4.41439796 10.231543,2.67132704 C13.4908022,0.928256112 16.8330273,3.87842293e-16 25.0920383,-6.23594842e-16 Z" id="矩形" fill="#4AA4E2"></path>
                    <path d="M17.0540606,28.3510023 C25.1054682,24.9747097 30.4654052,22.7312521 33.1568757,21.642842 C40.8172149,18.5553113 42.4274964,18.0222125 43.4626774,18 C43.6927176,18 44.1988061,18.0444249 44.5438664,18.3109743 C44.8199147,18.5330988 44.8889268,18.8218607 44.9349348,19.0439852 C44.9809428,19.2661097 45.0269509,19.7325712 44.9809428,20.0879704 C44.5668705,24.3083361 42.7725568,34.5482762 41.8523959,39.2573158 C41.4613275,41.2564364 40.7021948,41.92281 39.9660661,41.9894473 C38.3557846,42.122722 37.1365715,40.9676746 35.595302,39.9903267 C33.1568757,38.4576676 31.7996385,37.5025322 29.4302243,35.9920855 C26.6927457,34.2595143 28.4640553,33.3043789 30.0283288,31.7495073 C30.4424012,31.3496832 37.5046358,25.1301968 37.64266,24.5748856 C37.665664,24.5082482 37.665664,24.2416988 37.5046358,24.1084241 C37.3436077,23.9751494 37.1135675,24.0195743 36.9295353,24.0639992 C36.6764911,24.1084241 32.8118154,26.5962186 25.2895004,31.5051703 C24.1853073,32.2381812 23.1961344,32.5935805 22.2989776,32.571368 C21.3098046,32.5491556 19.4234749,32.0382692 17.9972255,31.5940202 C16.2719239,31.0609213 14.8916826,30.7721595 15.0067027,29.8392365 C15.0757148,29.3505626 15.7658354,28.8618887 17.0540606,28.3510023 Z" id="Telegram" fill="#FFFFFF"></path>
                </g>
            </g>
        </g>
    </g>
</svg>