<?xml version="1.0" encoding="UTF-8"?>
<svg width="60px" height="60px" viewBox="0 0 60 60" version="1.1" xmlns="http://www.w3.org/2000/svg" xmlns:xlink="http://www.w3.org/1999/xlink">
    <title>编组</title>
    <g id="Web" stroke="none" stroke-width="1" fill="none" fill-rule="evenodd">
        <g id="Web-Events-Light-(Static)备份-2" transform="translate(-370, -488)">
            <g id="Card-2" transform="translate(40, 423)">
                <g id="编组" transform="translate(330, 65)">
                    <path d="M25.0920383,-6.23594842e-16 L34.9079617,9.35392262e-16 C43.1669727,-5.8176344e-16 46.5091978,0.928256112 49.768457,2.67132704 C53.0277163,4.41439796 55.585602,6.97228371 57.328673,10.231543 C59.0717439,13.4908022 60,16.8330273 60,25.0920383 L60,34.9079617 C60,43.1669727 59.0717439,46.5091978 57.328673,49.768457 C55.585602,53.0277163 53.0277163,55.585602 49.768457,57.328673 C46.5091978,59.0717439 43.1669727,60 34.9079617,60 L25.0920383,60 C16.8330273,60 13.4908022,59.0717439 10.231543,57.328673 C6.97228371,55.585602 4.41439796,53.0277163 2.67132704,49.768457 C0.928256112,46.5091978 1.93921147e-16,43.1669727 -3.11797421e-16,34.9079617 L6.23594842e-16,25.0920383 C-3.87842293e-16,16.8330273 0.928256112,13.4908022 2.67132704,10.231543 C4.41439796,6.97228371 6.97228371,4.41439796 10.231543,2.67132704 C13.4908022,0.928256112 16.8330273,3.87842293e-16 25.0920383,-6.23594842e-16 Z" id="矩形" fill="#1D9BF0"></path>
                    <path d="M42.7239488,23.4726326 C42.7434491,23.7547148 42.7434491,24.036797 42.7434491,24.321479 C42.7434491,32.9958315 36.1393459,43 24.0634572,43 L24.0634572,42.9948003 C20.4962015,43 17.0030469,41.9782645 14,40.0517861 C14.5187081,40.1141822 15.0400163,40.1453802 15.5626244,40.1466801 C18.5188706,40.1492799 21.3906155,39.1574425 23.7163518,37.3310578 C20.9070079,37.2777612 18.4434694,35.4461768 17.582856,32.7722456 C18.5669714,32.9620336 19.5809872,32.9230361 20.5469023,32.6591527 C17.4840544,32.0403918 15.28052,29.3495616 15.28052,26.2245589 L15.28052,26.1413641 C16.1931343,26.6496321 17.2149502,26.9317143 18.2601666,26.9629123 C15.3754215,25.035134 14.4862076,21.1977762 16.2282348,18.1975656 C19.5614869,22.2988067 24.4794637,24.7920493 29.7588462,25.0559327 C29.229738,22.7758766 29.9525493,20.3866274 31.6581759,18.7838286 C34.3024172,16.2983855 38.4611822,16.4257774 40.946821,19.0685106 C42.417144,18.7786289 43.826366,18.239163 45.1159862,17.4748112 C44.6258785,18.9944153 43.6001625,20.2852338 42.2299411,21.105482 C43.5312614,20.9520917 44.8026813,20.6037137 46,20.0720473 C45.1185862,21.3927639 44.0083689,22.5431913 42.7239488,23.4726326 Z" id="路径" fill="#FFFFFF" fill-rule="nonzero"></path>
                </g>
            </g>
        </g>
    </g>
</svg>