<?xml version="1.0" encoding="UTF-8"?>
<svg width="80px" height="80px" viewBox="0 0 80 80" version="1.1" xmlns="http://www.w3.org/2000/svg" xmlns:xlink="http://www.w3.org/1999/xlink">
    <title>编组 4</title>
    <defs>
        <linearGradient x1="50%" y1="1.84889275e-30%" x2="50%" y2="100%" id="linearGradient-1">
            <stop stop-color="#54A4F3" offset="0%"></stop>
            <stop stop-color="#DDEFFC" offset="100%"></stop>
        </linearGradient>
        <linearGradient x1="50%" y1="1.84889275e-30%" x2="50%" y2="100%" id="linearGradient-2">
            <stop stop-color="#E94880" offset="0%"></stop>
            <stop stop-color="#FADCE7" offset="100%"></stop>
        </linearGradient>
    </defs>
    <g id="控件" stroke="none" stroke-width="1" fill="none" fill-rule="evenodd">
        <g id="编组-4">
            <circle id="椭圆形" fill="#FFFFFF" cx="40" cy="40" r="40"></circle>
            <g id="LOGO" transform="translate(25, 18)">
                <path d="M16.8230385,36.7800687 C12.7937427,37.800272 7.09084408,35.1046788 3.9691968,32.1262078 C0.283875081,28.6099158 -0.254208337,20.0261697 3.9691968,15 L14.4358965,24.3077217 C17.7411701,28.0308103 19.2101806,31.3815901 16.8230385,36.7800687 Z" id="Fill-29" fill="url(#linearGradient-1)"></path>
                <path d="M25.3635975,15 C27.8114242,17.8076457 29.0046833,19.5466703 29,23.1052632 C28.9917365,29.2635902 26.4063739,34.2352742 20.6363467,36 C20.9999814,30.4736842 20.0908947,27.7105263 17,23.1052632 L25.3635975,15 Z" id="Fill-32" fill="url(#linearGradient-2)"></path>
                <path d="M25.1437609,13.7950401 L14.9999952,23.444185 C8.81701221,17.6626491 6.93465147,9.98422414 14.9999952,2.76014388 C16.1076117,1.66971667 18.2568576,0 18.2568576,0 M15,2.76014388 L25.1437609,13.7950401 C28.0287116,16.6403736 30.0055617,20.2751309 29.9999882,23.8814918 C29.9903029,30.1224838 25.3434498,36.2754465 18.5430322,38.0638607 C14.6162794,39.0963589 8.24662081,38.1802865 4.31399487,34.308134 C-1.38047603,28.7009529 -1.43742305,19.6447277 4.14315384,13.9654193 C4.14315384,13.9654193 15,23.444185 15,23.444185 C19.3518064,27.7366063 20.9958419,32.4964347 18.5430322,38.0638607 C17.5897887,40.2271092 15.8170035,43.3319871 14.1258096,45" id="Stroke-34" stroke="#191C24" stroke-width="3"></path>
            </g>
        </g>
    </g>
</svg>